<svg xmlns="http://www.w3.org/2000/svg" xml:space="preserve" fill-rule="evenodd" stroke-linejoin="round" stroke-miterlimit="2" clip-rule="evenodd" viewBox="0 0 500 500">
  <path fill="#fff" d="M120 250c0-13.8-11.201-25-25-25H25c-13.798 0-25 11.2-25 25 0 13.797 11.202 24.999 25 24.999h70c13.799 0 25-11.202 25-25Zm150 0c0-13.8-11.201-25-25-25h-70c-13.798 0-25 11.2-25 25 0 13.797 11.202 24.999 25 24.999h70c13.799 0 25-11.202 25-25Zm130.001-100.002c55.192 0 100.001 44.81 100.001 100.001 0 55.19-44.809 100-100 100s-100-44.81-100-100c0-55.192 44.809-100 100-100Zm0 50c-27.595 0-50 22.405-50 50.001 0 27.596 22.405 50 50 50 27.596 0 50-22.404 50-50s-22.404-50-50-50Zm-75.003-79.906C302.93 107.316 277.313 100 250 100c-55.474 0-103.955 30.179-129.906 75H64.56C94.254 101.732 166.133 50 250 50c51.173 0 97.883 19.261 133.27 50.922a148.978 148.978 0 0 0-58.272 19.17Zm58.277 278.982C347.888 430.738 301.176 450 250 450c-83.867 0-155.746-51.732-185.44-125h55.534c25.951 44.821 74.432 75 129.906 75 27.314 0 52.933-7.317 75.002-20.095a149.003 149.003 0 0 0 58.273 19.169Z"/>
</svg>