<svg xmlns="http://www.w3.org/2000/svg" xml:space="preserve" fill-rule="evenodd" stroke-linejoin="round"
    stroke-miterlimit="2" clip-rule="evenodd" viewBox="0 -100 1674 600">
    <path fill="#000"
        d="M120.0004 199.9998c0-13.799-11.2019-25.0003-25.0004-25.0003H25.0004C11.202 174.9995 0 186.2008 0 199.9998c0 13.7976 11.2019 24.9989 25.0004 24.9989H95c13.7985 0 25.0004-11.2013 25.0004-24.999Zm150 0c0-13.799-11.2019-25.0003-25.0004-25.0003h-69.9996c-13.7985 0-25.0004 11.2013-25.0004 25.0003 0 13.7976 11.2019 24.9989 25.0004 24.9989H245c13.7985 0 25.0004-11.2013 25.0004-24.999Zm379.9997 0c0-13.799-11.2019-25.0003-25.0004-25.0003H555c-13.7985 0-25.0004 11.2013-25.0004 25.0003 0 13.7976 11.2019 24.9989 25.0004 24.9989h69.9996c13.7985 0 25.0004-11.2013 25.0004-24.999ZM400.0012 99.9982c55.1918 0 100.0008 44.809 100.0008 100.0008 0 55.1907-44.809 99.9997-100.0008 99.9997-55.1906 0-99.9997-44.809-99.9997-99.9997 0-55.1918 44.809-100.0008 99.9997-100.0008Zm0 50.0004c-27.5947 0-49.9993 22.4045-49.9993 50.0004 0 27.596 22.4046 49.9993 49.9993 49.9993 27.5959 0 50.0004-22.4033 50.0004-49.9993 0-27.5959-22.4045-50.0004-50.0004-50.0004ZM324.998 70.092C302.93 57.316 277.313 50 250 50c-55.474 0-103.955 30.179-129.906 75H64.56C94.254 51.732 166.133 0 250 0c51.173 0 97.883 19.261 133.27 50.922-21.04 2.339-40.772 9.037-58.272 19.17Zm58.277 278.982C347.888 380.738 301.176 400 250 400c-83.867 0-155.746-51.732-185.44-125h55.534c25.951 44.821 74.432 75 129.906 75 27.314 0 52.933-7.317 75.002-20.095 17.501 10.132 37.233 16.83 58.273 19.169Z" />
    <path fill-rule="nonzero" fill="#000"
        d="M738.2343 357.223v-88.8887c12.2605 21.0728 37.5478 31.8007 57.8543 31.8007 49.042 0 83.9078-37.1647 83.9078-99.6166 0-61.6857-34.8658-100.3829-83.9078-100.3829-20.3065 0-45.5938 10.3448-57.8543 31.4175l-7.6628-26.0535H679.997V357.223h58.2374Zm-2.682-157.854c0-39.0804 19.1571-54.0229 42.1455-54.0229 22.6054 0 41.7624 20.3065 41.7624 55.1723 0 35.632-19.157 54.406-41.7624 54.406-22.9884 0-42.1454-16.475-42.1454-55.5554Zm231.034 96.1683v-95.7852c0-30.2681 15.3256-42.5286 43.678-42.5286 5.3666 0 9.5839.3831 15.7035 1.1494v-58.2374c-29.1134-1.5326-49.4199 9.5785-61.2972 40.2298l-10.3448-34.8658h-45.977v190.0378h58.2375Zm74.3346-95.7852c0 68.5822 47.8926 100.3829 100.7607 100.3829 52.1098 0 100.3882-31.8007 100.3882-100.3829s-48.2784-99.6166-100.3882-99.6166c-52.8681 0-100.7607 31.0344-100.7607 99.6166Zm100.7607-54.406c22.6027 0 41.0014 14.1762 41.0014 54.406 0 39.8467-17.6271 55.1723-41.0014 55.1723-23.76 0-41.3739-15.3256-41.3739-55.1723 0-40.2298 18.3855-54.406 41.3739-54.406ZM1328.649 357.223v-88.8887c12.2658 21.0728 37.5558 31.8007 57.857 31.8007 49.05 0 83.905-37.1647 83.905-99.6166 0-61.6857-34.855-100.3829-83.905-100.3829-20.3012 0-45.5912 10.3448-57.857 31.4175l-7.6628-26.0535h-50.5666V357.223h58.2294Zm-2.674-157.854c0-39.0804 19.157-54.0229 42.1455-54.0229 22.6026 0 41.7597 20.3065 41.7597 55.1723 0 35.632-19.157 54.406-41.7597 54.406-22.9885 0-42.1455-16.475-42.1455-55.5554Zm254.7886 100.766c50.9524 0 93.098-21.839 93.098-66.6665 0-31.8007-21.4586-45.2106-67.4355-53.6397l-35.241-6.5134c-16.8555-3.0651-23.3742-7.6628-23.3742-15.3256 0-9.9617 10.7226-15.3257 31.4228-15.3257 17.2414 0 31.7954 3.8314 35.6268 17.6245l49.0367-18.0076c-14.1682-29.885-47.8926-42.1455-84.291-42.1455-47.121 0-87.3508 20.3065-87.3508 60.1531 0 31.8007 25.29 50.5746 62.0742 56.7048l34.0968 5.7472c21.831 3.8314 29.4939 9.1953 29.4939 17.2413 0 11.8774-17.2413 17.6245-36.0126 17.6245-21.831 0-39.0724-7.6628-44.8195-23.7548l-49.4358 18.0077c14.5674 31.8006 48.6642 48.2757 93.1112 48.2757Z" />
</svg>